<?xml version="1.0" encoding="UTF-8"?><svg id="Calque_1" xmlns="http://www.w3.org/2000/svg" viewBox="0 0 149.87 126.42"><defs><style>.cls-1{fill:none;stroke:#fff;stroke-linecap:round;stroke-linejoin:round;stroke-width:2px;}</style></defs><path class="cls-1" d="M74.95,22.35c-1.3,.45-2.29-1.43-3.28-2.39-4.26-4.1-8.04-8.72-12.88-12.21-5.94-4.28-12.55-6.64-19.93-6.72-3.6-.04-7.16,.08-10.66,1.04-5.15,1.42-9.81,3.77-13.93,7.21-5.18,4.32-8.96,9.61-11.16,15.99-1.94,5.65-2.64,11.44-1.72,17.36,1.22,7.82,4.55,14.66,10.14,20.27,20.07,20.14,40.21,40.23,60.3,60.35,.92,.92,1.92,1.69,3.07,2.18,1.42-.48,2.44-1.5,3.47-2.53,19.99-20,40.03-39.94,59.95-60.01,7.64-7.7,11.15-17.19,10.44-27.99-.52-7.92-3.37-15.04-8.66-21.18-4.5-5.22-9.99-8.83-16.38-11.09-2.9-1.02-5.97-1.54-9.09-1.61-4.74-.11-9.4,.16-13.92,1.74-5.2,1.81-9.81,4.56-13.74,8.43-3.06,3.01-6.09,6.06-9.11,9.11-.8,.81-1.84,1.67-2.93,2.06h0Z"/></svg>