<?xml version="1.0" encoding="UTF-8"?><svg id="Calque_1" xmlns="http://www.w3.org/2000/svg" viewBox="0 0 432.2 363.98"><defs><style>.cls-1{fill:none;stroke:#fff;stroke-linecap:round;stroke-linejoin:round;stroke-width:2px;}</style></defs><path class="cls-1" d="M216.14,63.12c-3.78,1.32-6.65-4.15-9.55-6.95-12.4-11.94-23.4-25.38-37.47-35.53C151.83,8.18,132.61,1.32,111.14,1.08c-10.46-.12-20.83,.22-31,3.02-14.99,4.14-28.54,10.98-40.52,20.98-15.07,12.58-26.07,27.96-32.46,46.53C1.51,88.04-.51,104.9,2.17,122.11c3.55,22.76,13.23,42.64,29.5,58.97,58.4,58.6,116.97,117.03,175.43,175.57,2.69,2.69,5.58,4.92,8.94,6.33,4.14-1.4,7.11-4.36,10.1-7.35,58.15-58.19,116.46-116.21,174.42-174.58,22.23-22.39,32.44-50.02,30.37-81.42-1.52-23.04-9.81-43.75-25.19-61.61-13.08-15.18-29.05-25.7-47.66-32.27-8.44-2.98-17.36-4.47-26.45-4.69-13.78-.33-27.36,.47-40.5,5.05-15.12,5.26-28.55,13.28-39.98,24.52-8.91,8.76-17.71,17.62-26.49,26.51-2.34,2.37-5.35,4.87-8.52,5.98Z"/></svg>